<svg width="28" height="36" viewBox="0 0 28 36" fill="none" xmlns="http://www.w3.org/2000/svg">
<rect width="28" height="36" rx="3" fill="white" fill-opacity="0.01"/>
<path d="M9.92871 23.0674C10.4209 23.0674 10.8174 22.664 10.8174 22.1787C10.8174 21.6865 10.4209 21.29 9.92871 21.29C9.44336 21.29 9.04004 21.6865 9.04004 22.1787C9.04004 22.664 9.44336 23.0674 9.92871 23.0674ZM14.001 23.0674C14.4932 23.0674 14.8896 22.664 14.8896 22.1787C14.8896 21.6865 14.4932 21.29 14.001 21.29C13.5156 21.29 13.1123 21.6865 13.1123 22.1787C13.1123 22.664 13.5156 23.0674 14.001 23.0674ZM18.0732 23.0674C18.5654 23.0674 18.9619 22.664 18.9619 22.1787C18.9619 21.6865 18.5654 21.29 18.0732 21.29C17.5879 21.29 17.1845 21.6865 17.1845 22.1787C17.1845 22.664 17.5879 23.0674 18.0732 23.0674Z" fill="#475569"/>
</svg>
