<svg width="21" height="21" viewBox="0 0 21 21" fill="none" xmlns="http://www.w3.org/2000/svg">
<path d="M17.5 20.125H15.75V18.375C15.75 17.6788 15.4735 17.0111 14.9812 16.5189C14.4889 16.0266 13.8212 15.75 13.125 15.75H7.87504C7.17884 15.75 6.51116 16.0266 6.01888 16.5189C5.5266 17.0111 5.25004 17.6788 5.25004 18.375V20.125H3.50004V18.375C3.50004 17.2147 3.96097 16.1019 4.78144 15.2814C5.60192 14.461 6.71471 14 7.87504 14H13.125C14.2854 14 15.3982 14.461 16.2186 15.2814C17.0391 16.1019 17.5 17.2147 17.5 18.375V20.125ZM10.5 12.25C9.8106 12.25 9.12791 12.1142 8.49095 11.8504C7.85399 11.5865 7.27523 11.1998 6.78773 10.7123C6.30022 10.2248 5.91351 9.64606 5.64967 9.0091C5.38583 8.37215 5.25004 7.68946 5.25004 7.00002C5.25004 6.31058 5.38583 5.62789 5.64967 4.99093C5.91351 4.35397 6.30022 3.77521 6.78773 3.28771C7.27523 2.8002 7.85399 2.41349 8.49095 2.14965C9.12791 1.88581 9.8106 1.75002 10.5 1.75002C11.8924 1.75002 13.2278 2.30314 14.2123 3.28771C15.1969 4.27227 15.75 5.60763 15.75 7.00002C15.75 8.3924 15.1969 9.72776 14.2123 10.7123C13.2278 11.6969 11.8924 12.25 10.5 12.25ZM10.5 10.5C11.4283 10.5 12.3185 10.1313 12.9749 9.47489C13.6313 8.81851 14 7.92827 14 7.00002C14 6.07176 13.6313 5.18152 12.9749 4.52514C12.3185 3.86877 11.4283 3.50002 10.5 3.50002C9.57178 3.50002 8.68154 3.86877 8.02516 4.52514C7.36878 5.18152 7.00004 6.07176 7.00004 7.00002C7.00004 7.92827 7.36878 8.81851 8.02516 9.47489C8.68154 10.1313 9.57178 10.5 10.5 10.5Z" fill="#6A6A9F"/>
</svg>
