<svg width="21" height="21" viewBox="0 0 21 21" fill="none" xmlns="http://www.w3.org/2000/svg">
<path d="M14.4578 13.5299L17.2685 16.34L16.34 17.2686L13.5299 14.4579C12.4843 15.296 11.1838 15.7519 9.84373 15.75C6.58349 15.75 3.93749 13.104 3.93749 9.84377C3.93749 6.58352 6.58349 3.93752 9.84373 3.93752C13.104 3.93752 15.75 6.58352 15.75 9.84377C15.7519 11.1838 15.296 12.4843 14.4578 13.5299ZM13.1414 13.043C13.9742 12.1865 14.4394 11.0384 14.4375 9.84377C14.4375 7.30539 12.3815 5.25002 9.84373 5.25002C7.30536 5.25002 5.24999 7.30539 5.24999 9.84377C5.24999 12.3815 7.30536 14.4375 9.84373 14.4375C11.0384 14.4394 12.1865 13.9743 13.043 13.1414L13.1414 13.043Z" fill="#334E68"/>
</svg>
