<svg width="21" height="21" viewBox="0 0 21 21" fill="none" xmlns="http://www.w3.org/2000/svg">
<path d="M5.39874 15.7522C5.57951 15.2398 5.91476 14.7962 6.35826 14.4824C6.80176 14.1685 7.33169 14 7.87498 14C8.41828 14 8.94821 14.1685 9.39171 14.4824C9.83521 14.7962 10.1705 15.2398 10.3512 15.7522H19.25V17.5022H10.3512C10.1705 18.0145 9.83521 18.4582 9.39171 18.772C8.94821 19.0858 8.41828 19.2543 7.87498 19.2543C7.33169 19.2543 6.80176 19.0858 6.35826 18.772C5.91476 18.4582 5.57951 18.0145 5.39874 17.5022H1.74999V15.7522H5.39874ZM10.6487 9.62716C10.8295 9.11482 11.1648 8.67117 11.6083 8.35735C12.0518 8.04354 12.5817 7.87502 13.125 7.87502C13.6683 7.87502 14.1982 8.04354 14.6417 8.35735C15.0852 8.67117 15.4205 9.11482 15.6012 9.62716H19.25V11.3772H15.6012C15.4205 11.8895 15.0852 12.3332 14.6417 12.647C14.1982 12.9608 13.6683 13.1293 13.125 13.1293C12.5817 13.1293 12.0518 12.9608 11.6083 12.647C11.1648 12.3332 10.8295 11.8895 10.6487 11.3772H1.74999V9.62716H10.6487ZM5.39874 3.50216C5.57951 2.98982 5.91476 2.54617 6.35826 2.23235C6.80176 1.91854 7.33169 1.75002 7.87498 1.75002C8.41828 1.75002 8.94821 1.91854 9.39171 2.23235C9.83521 2.54617 10.1705 2.98982 10.3512 3.50216H19.25V5.25216H10.3512C10.1705 5.7645 9.83521 6.20816 9.39171 6.52197C8.94821 6.83578 8.41828 7.00431 7.87498 7.00431C7.33169 7.00431 6.80176 6.83578 6.35826 6.52197C5.91476 6.20816 5.57951 5.7645 5.39874 5.25216H1.74999V3.50216H5.39874ZM7.87498 5.25216C8.10705 5.25216 8.32961 5.15997 8.4937 4.99588C8.6578 4.83179 8.74998 4.60923 8.74998 4.37716C8.74998 4.1451 8.6578 3.92254 8.4937 3.75844C8.32961 3.59435 8.10705 3.50216 7.87498 3.50216C7.64292 3.50216 7.42036 3.59435 7.25627 3.75844C7.09217 3.92254 6.99998 4.1451 6.99998 4.37716C6.99998 4.60923 7.09217 4.83179 7.25627 4.99588C7.42036 5.15997 7.64292 5.25216 7.87498 5.25216ZM13.125 11.3772C13.357 11.3772 13.5796 11.285 13.7437 11.1209C13.9078 10.9568 14 10.7342 14 10.5022C14 10.2701 13.9078 10.0475 13.7437 9.88344C13.5796 9.71935 13.357 9.62716 13.125 9.62716C12.8929 9.62716 12.6704 9.71935 12.5063 9.88344C12.3422 10.0475 12.25 10.2701 12.25 10.5022C12.25 10.7342 12.3422 10.9568 12.5063 11.1209C12.6704 11.285 12.8929 11.3772 13.125 11.3772ZM7.87498 17.5022C8.10705 17.5022 8.32961 17.41 8.4937 17.2459C8.6578 17.0818 8.74998 16.8592 8.74998 16.6272C8.74998 16.3951 8.6578 16.1725 8.4937 16.0084C8.32961 15.8443 8.10705 15.7522 7.87498 15.7522C7.64292 15.7522 7.42036 15.8443 7.25627 16.0084C7.09217 16.1725 6.99998 16.3951 6.99998 16.6272C6.99998 16.8592 7.09217 17.0818 7.25627 17.2459C7.42036 17.41 7.64292 17.5022 7.87498 17.5022Z" fill="#6A6A9F"/>
</svg>
